<svg version="1.1" id="Layer_1" xmlns="http://www.w3.org/2000/svg" xmlns:xlink="http://www.w3.org/1999/xlink" x="0px" y="0px"
	 width="100%" viewBox="0 0 470 470" enable-background="new 0 0 470 470" xml:space="preserve">
<path fill="#000000" opacity="1.000000" stroke="none" 
	d="
M258.000000,471.000000 
	C172.022736,471.000000 86.545471,471.000000 1.034101,471.000000 
	C1.034101,314.397736 1.034101,157.795456 1.034101,1.096587 
	C157.560562,1.096587 314.121216,1.096587 470.840942,1.096587 
	C470.840942,157.666534 470.840942,314.333252 470.840942,471.000000 
	C400.128815,471.000000 329.314423,471.000000 258.000000,471.000000 
M403.004852,189.995163 
	C403.004852,189.995163 403.066803,189.983871 402.913910,189.468796 
	C402.616516,189.289612 402.319092,189.110428 402.007935,188.993118 
	C402.007935,188.993118 402.063385,188.962387 401.884155,188.357147 
	C400.943695,187.553238 400.003265,186.749329 399.018188,185.971451 
	C399.018188,185.971451 399.040344,185.924698 398.786011,185.295563 
	C397.913696,185.232819 397.041412,185.170074 395.821777,184.481293 
	C392.344421,182.640167 389.013977,180.387573 385.346710,179.078491 
	C381.964783,177.871277 379.252777,176.438034 377.987335,172.047684 
	C377.315765,162.550995 374.806427,153.684204 368.974457,145.223022 
	C368.390869,144.040390 367.964020,142.743408 367.198120,141.693832 
	C362.433014,135.163437 357.751556,128.561996 352.733002,122.229294 
	C347.293427,115.365372 340.996185,109.401817 332.879486,105.113678 
	C324.883728,98.056175 315.428497,94.077858 304.714569,91.286278 
	C303.496460,90.859001 302.305298,90.318275 301.056152,90.021828 
	C287.210297,86.736015 273.144989,86.594109 258.101257,87.038414 
	C253.185425,87.038414 248.269577,87.038414 243.045822,87.038414 
	C243.045822,81.260544 243.045822,76.148613 243.776978,70.926918 
	C255.250244,67.315598 263.343353,60.407085 266.725830,47.689877 
	C266.744354,40.978722 268.616760,34.016853 264.019684,27.987083 
	C264.019684,27.987083 264.087463,27.969091 264.010895,27.300611 
	C263.031525,26.186016 262.052155,25.071423 260.810333,23.338926 
	C258.148285,20.880642 255.486267,18.422358 252.719971,15.260037 
	C242.500488,8.481954 227.603134,9.208337 218.252869,17.191504 
	C215.492432,20.814642 212.731979,24.437780 209.258469,28.236401 
	C204.533737,34.030430 206.115585,40.847355 206.229187,47.408421 
	C206.232605,47.606297 207.306824,47.785637 207.749359,48.535843 
	C208.691483,57.671577 214.137939,64.621284 221.874969,67.493263 
	C230.845932,70.823273 231.848038,76.432693 231.031982,84.084679 
	C230.997360,84.409355 231.052841,84.743652 230.313889,85.404449 
	C228.956970,85.945755 227.620087,86.886597 226.239487,86.955856 
	C221.493042,87.193977 216.731308,87.127144 211.049866,87.025681 
	C201.499527,87.356956 191.910416,87.278076 182.413635,88.175888 
	C176.863861,88.700554 171.461548,90.785324 165.272125,92.295944 
	C164.668808,92.526299 164.038910,92.704277 163.466232,92.994987 
	C156.277557,96.644264 149.097183,100.309830 141.326874,104.293922 
	C138.224091,106.548141 135.121323,108.802353 131.354996,111.027847 
	C130.549332,111.669235 129.743668,112.310623 128.993637,112.995964 
	C128.993637,112.995964 128.963013,112.932030 128.347855,113.195084 
	C125.876221,115.782333 123.404602,118.369576 120.990791,120.990234 
	C120.990791,120.990234 120.971069,120.926430 120.447784,121.064651 
	C120.273933,121.366539 120.100090,121.668419 119.991516,121.991066 
	C119.991516,121.991066 119.952126,121.935036 119.331192,122.149757 
	C118.831047,123.086037 118.330902,124.022316 117.227692,125.231613 
	C116.147049,126.847618 115.066406,128.463623 113.320770,130.232559 
	C103.983650,141.987411 97.704384,155.137634 94.815697,170.705399 
	C94.357735,172.399384 93.899773,174.093369 93.525871,175.476410 
	C89.596710,177.173141 85.680664,178.480179 82.172104,180.496338 
	C79.164986,182.224319 76.624321,184.764038 73.942635,186.971313 
	C73.942635,186.971313 73.947952,186.901047 73.023270,186.792084 
	C72.654305,187.707138 72.285339,188.622177 71.615791,189.361267 
	C71.615791,189.361267 71.359802,189.599075 71.359802,189.599075 
	C71.359802,189.599075 71.512238,189.912598 70.717117,189.407654 
	C70.453476,189.921860 70.189835,190.436066 69.995354,190.963745 
	C69.995354,190.963745 69.957863,190.904083 69.258476,190.596924 
	C68.140434,192.388138 67.022392,194.179352 65.973114,195.970627 
	C65.973114,195.970627 65.948738,195.906342 65.234741,195.646317 
	C64.752350,196.288147 64.229614,196.903793 63.793564,197.575714 
	C56.134125,209.378235 55.029549,222.484253 56.031387,236.881821 
	C57.350475,242.076340 58.357292,247.379532 60.112103,252.422440 
	C61.081062,255.207016 63.304539,257.555054 64.982391,260.015747 
	C64.982391,260.015747 64.897942,259.997162 64.418167,260.572906 
	C64.943672,261.070312 65.469177,261.567719 66.004501,261.996063 
	C66.004501,261.996063 65.935295,261.987366 66.019760,262.774963 
	C66.636658,266.592529 67.518127,270.391785 67.784065,274.233643 
	C67.985123,277.138306 67.399918,280.097443 67.020729,283.954132 
	C67.676811,294.368408 68.188408,304.795380 69.100296,315.187225 
	C69.303879,317.507172 70.913193,319.703796 71.683197,322.546051 
	C72.073898,324.048798 72.464607,325.551514 72.528610,327.619568 
	C75.319412,336.457886 78.110207,345.296204 81.006546,354.865051 
	C84.725403,361.910950 88.444260,368.956848 92.310143,376.664612 
	C96.171043,381.789307 100.031944,386.913971 104.153549,392.636383 
	C105.359573,394.104279 106.565590,395.572205 107.979774,397.727203 
	C108.980774,398.515045 109.981781,399.302917 110.989555,400.007996 
	C110.989555,400.007996 110.906723,400.001984 110.502571,400.598328 
	C110.991966,401.086273 111.481361,401.574249 111.994400,402.005219 
	C111.994400,402.005219 111.935822,402.024658 112.191521,402.646637 
	C115.451721,405.785645 118.711929,408.924652 121.993797,412.005676 
	C121.993797,412.005676 121.932892,412.016876 122.086258,412.532257 
	C122.384415,412.710785 122.682571,412.889282 122.993362,413.006287 
	C122.993362,413.006287 122.932259,413.020721 123.068932,413.547394 
	C123.372528,413.721100 123.676117,413.894806 123.993347,414.007233 
	C123.993347,414.007233 123.936958,414.034790 124.182159,414.646027 
	C125.111053,415.174805 126.039948,415.703613 127.272743,416.823486 
	C134.484161,421.893524 141.695572,426.963562 149.177734,432.675659 
	C155.462097,435.804749 161.746460,438.933868 168.006073,441.990173 
	C168.006073,441.990173 167.933060,442.014252 168.255447,442.653564 
	C175.730240,445.377869 183.205017,448.102173 191.507904,450.982605 
	C196.502197,451.941803 201.496490,452.901001 206.986282,454.396790 
	C210.935806,455.211945 214.869003,456.620544 218.837952,456.729675 
	C230.267838,457.044037 241.714249,456.951813 253.149368,456.748840 
	C256.108795,456.696350 259.050629,455.651001 262.811798,454.949097 
	C268.296021,453.910583 273.780212,452.872070 279.632233,451.655792 
	C279.830963,451.458618 279.969177,451.225525 279.957642,450.975739 
	C279.957642,450.975739 279.973999,451.065491 280.805847,451.020477 
	C288.227173,448.352509 295.648499,445.684540 302.999481,443.000824 
	C302.999481,443.000824 302.984009,443.071198 303.753571,443.041504 
	C309.818054,440.035431 315.882568,437.029358 322.371124,433.481873 
	C328.016541,429.780640 334.166748,426.655823 339.196411,422.251434 
	C348.113220,414.443085 356.736877,406.212555 364.739990,397.477692 
	C370.471558,391.222076 374.990662,383.855560 380.672668,376.707886 
	C384.800934,368.823578 388.929199,360.939301 393.676147,352.654388 
	C396.073242,344.824402 398.470367,336.994415 400.854248,328.556061 
	C400.618286,328.002594 400.382294,327.449127 400.795593,326.589264 
	C401.520416,325.344666 402.780212,324.144348 402.887573,322.848602 
	C403.986237,309.582764 404.897827,296.301392 405.976471,282.123474 
	C405.667480,278.855011 405.730072,275.496765 404.966705,272.338104 
	C403.661102,266.935577 407.920471,263.491730 408.999573,258.999084 
	C408.999573,258.999084 409.011719,259.066101 409.669617,258.806702 
	C411.105927,256.058258 412.702728,253.380524 413.950165,250.548874 
	C418.817017,239.501205 417.783173,227.669724 416.569427,216.376938 
	C415.558075,206.967133 411.202454,197.949295 404.006348,190.993393 
	C404.006348,190.993393 404.067535,190.979904 403.911926,190.465317 
	C403.613251,190.287918 403.314575,190.110535 403.004852,189.995163 
M344.481018,62.089527 
	C344.298065,62.392235 344.115112,62.694946 343.993317,62.979225 
	C343.993317,62.979225 343.952179,62.930412 343.214172,63.395409 
	C343.473602,69.007057 343.733032,74.618706 344.311493,80.862953 
	C347.098297,83.566551 349.971954,84.275925 353.507599,80.953636 
	C353.696869,80.631798 353.886169,80.309967 354.011963,80.020332 
	C354.011963,80.020332 354.045288,80.083244 354.776367,79.605736 
	C354.850830,74.888031 355.022400,70.168068 354.913025,65.454628 
	C354.892578,64.573425 353.746674,63.718353 353.160919,62.913338 
	C353.160919,62.913338 353.201324,62.851002 353.339447,62.089348 
	C350.574036,59.506989 347.773468,59.060360 344.976135,61.986118 
	C344.976135,61.986118 345.001556,61.922962 344.481018,62.089527 
M396.745636,104.222000 
	C391.725403,102.404045 386.764496,101.879768 381.340454,105.221390 
	C376.852539,109.602478 376.689819,113.514084 381.987213,114.966751 
	C387.057770,116.357201 393.132660,115.966286 398.289551,114.582382 
	C402.637421,113.415588 401.720337,107.367355 396.745636,104.222000 
M377.070953,74.332512 
	C374.845917,76.559799 372.397797,78.613487 370.479218,81.079231 
	C369.320953,82.567818 367.991058,85.062386 368.503754,86.454895 
	C369.354462,88.765419 370.629028,92.033989 374.436462,90.939514 
	C376.217834,90.427452 378.164368,89.936340 379.586670,88.848282 
	C382.237030,86.820816 384.845367,84.596107 386.935150,82.018852 
	C388.953796,79.529381 389.680359,76.179733 387.035461,73.723389 
	C384.162842,71.055550 380.747314,71.421852 377.070953,74.332512 
z"/>
<path fill="#015E38" opacity="1.000000" stroke="none" 
	d="
M332.816132,105.791840 
	C340.996185,109.401817 347.293427,115.365372 352.733002,122.229294 
	C357.751556,128.561996 362.433014,135.163437 367.198120,141.693832 
	C367.964020,142.743408 368.390869,144.040390 369.028625,145.949463 
	C372.086670,155.411926 375.090546,164.147934 378.094421,172.883942 
	C379.252777,176.438034 381.964783,177.871277 385.346710,179.078491 
	C389.013977,180.387573 392.344421,182.640167 396.226807,185.042267 
	C397.434662,185.710388 398.237518,185.817551 399.040344,185.924698 
	C399.040344,185.924698 399.018188,185.971451 398.878235,186.303085 
	C399.846649,187.410614 400.955017,188.186493 402.063385,188.962387 
	C402.063385,188.962387 402.007935,188.993118 402.017792,189.267090 
	C402.374023,189.688660 402.720428,189.836258 403.066803,189.983871 
	C403.066803,189.983871 403.004852,189.995163 403.015808,190.269470 
	C403.373688,190.689148 403.720612,190.834534 404.067535,190.979904 
	C404.067535,190.979904 404.006348,190.993393 403.922791,191.321625 
	C404.314331,192.513931 404.692352,193.451080 405.279266,194.230972 
	C412.320709,203.587219 415.135193,214.084808 415.336548,225.799240 
	C415.536865,237.455872 413.930695,248.508789 409.011719,259.066101 
	C409.011719,259.066101 408.999573,258.999084 408.706696,259.104065 
	C406.639160,262.089203 403.426361,264.931335 403.349091,267.856293 
	C403.074829,278.233673 403.870514,288.639282 404.200684,299.475494 
	C402.809082,308.909729 401.477722,317.902710 400.146332,326.895660 
	C400.382294,327.449127 400.618286,328.002594 400.511871,328.920258 
	C397.513275,336.899048 394.857025,344.513672 392.038727,352.445160 
	C387.934692,360.836273 383.992706,368.910492 380.050720,376.984711 
	C374.990662,383.855560 370.471558,391.222076 364.739990,397.477692 
	C356.736877,406.212555 348.113220,414.443085 339.196411,422.251434 
	C334.166748,426.655823 328.016541,429.780640 321.786102,433.687622 
	C315.128723,436.952637 309.056366,440.011902 302.984009,443.071198 
	C302.984009,443.071198 302.999481,443.000824 302.648926,442.965820 
	C294.856903,445.642365 287.415436,448.353943 279.973999,451.065491 
	C279.973999,451.065491 279.957642,450.975739 279.872192,451.116455 
	C279.547363,451.390167 279.373260,451.582306 279.264435,451.833527 
	C273.780212,452.872070 268.296021,453.910583 261.939575,454.974945 
	C251.440781,455.309723 241.807343,455.992828 232.189743,455.815918 
	C223.614334,455.658142 215.056427,454.549286 206.490799,453.860168 
	C201.496490,452.901001 196.502197,451.941803 191.019104,450.579987 
	C182.997894,447.456329 175.465469,444.735291 167.933060,442.014252 
	C167.933060,442.014252 168.006073,441.990173 167.856476,441.715149 
	C161.440247,438.304626 155.173615,435.169128 148.906982,432.033630 
	C141.695572,426.963562 134.484161,421.893524 127.061302,416.178162 
	C125.878891,415.033478 124.907928,414.534119 123.936966,414.034790 
	C123.936958,414.034790 123.993347,414.007233 123.982689,413.732849 
	C123.625443,413.312531 123.278854,413.166626 122.932259,413.020721 
	C122.932259,413.020721 122.993362,413.006287 122.975952,412.736328 
	C122.616661,412.316559 122.274780,412.166718 121.932892,412.016876 
	C121.932892,412.016876 121.993797,412.005676 122.033501,411.684326 
	C118.694084,408.250183 115.314957,405.137421 111.935822,402.024658 
	C111.935822,402.024658 111.994400,402.005219 112.046913,401.716370 
	C111.701866,400.952362 111.304306,400.477173 110.906731,400.001953 
	C110.906723,400.001984 110.989555,400.007996 110.872711,399.736938 
	C109.761116,398.657288 108.766365,397.848694 107.771614,397.040100 
	C106.565590,395.572205 105.359573,394.104279 103.955994,392.003967 
	C100.230598,386.247742 96.702774,381.123871 93.078888,375.653687 
	C89.246223,367.908966 85.509613,360.510559 81.645271,352.778687 
	C78.630127,343.981537 75.742722,335.517914 72.855316,327.054260 
	C72.464607,325.551514 72.073898,324.048798 71.783195,321.838074 
	C70.854561,311.777008 69.825928,302.423950 68.876762,292.602966 
	C69.283966,284.343292 69.930115,276.543884 69.742424,268.764587 
	C69.687218,266.476227 67.270012,264.244843 65.935303,261.987366 
	C65.935295,261.987366 66.004501,261.996063 65.994995,261.716309 
	C65.622971,260.956726 65.260460,260.476959 64.897949,259.997162 
	C64.897942,259.997162 64.982391,260.015747 64.929382,259.700439 
	C62.519875,252.244598 60.163387,245.104050 57.844719,237.498779 
	C58.208763,229.448593 57.730682,221.713425 59.106094,214.323227 
	C60.286743,207.979492 63.586239,202.030121 65.948746,195.906342 
	C65.948738,195.906342 65.973114,195.970627 66.252808,195.861099 
	C67.674286,194.135742 68.816071,192.519913 69.957863,190.904083 
	C69.957863,190.904083 69.995354,190.963745 70.276703,190.878113 
	C70.876106,190.499176 71.194168,190.205887 71.512238,189.912598 
	C71.512238,189.912598 71.359802,189.599075 71.359802,189.599075 
	C71.359802,189.599075 71.615791,189.361267 72.028023,189.225876 
	C72.942825,188.360672 73.445389,187.630859 73.947952,186.901047 
	C73.947952,186.901047 73.942635,186.971313 74.262970,186.936646 
	C79.460190,184.225479 84.076965,180.686157 89.287201,179.115448 
	C94.483978,177.548828 96.018944,174.711960 96.191696,169.702347 
	C98.584366,162.959076 100.273331,156.298157 103.058754,150.132584 
	C106.184052,143.214691 110.300545,136.744568 113.985764,130.079636 
	C115.066406,128.463623 116.147049,126.847618 117.876190,125.023193 
	C119.000504,123.854858 119.476311,122.894951 119.952126,121.935036 
	C119.952126,121.935036 119.991516,121.991066 120.287613,122.021683 
	C120.712837,121.677017 120.841957,121.301727 120.971069,120.926430 
	C120.971069,120.926430 120.990791,120.990234 121.304321,121.092163 
	C124.066238,118.440063 126.514626,115.686043 128.963013,112.932022 
	C128.963013,112.932030 128.993637,112.995964 129.277924,113.141113 
	C130.380997,112.543037 131.199783,111.799805 132.018555,111.056564 
	C135.121323,108.802353 138.224091,106.548141 141.984711,104.141655 
	C150.442398,100.373756 158.242249,96.758118 166.439758,93.106750 
	C175.551285,91.655243 184.265182,90.239471 193.445770,88.882431 
	C205.029282,88.951942 216.146347,89.004807 227.262726,88.939568 
	C229.611786,88.925789 232.963379,89.459915 231.066330,85.073463 
	C231.052841,84.743652 230.997360,84.409355 231.031982,84.084679 
	C231.848038,76.432693 230.845932,70.823273 221.874969,67.493263 
	C214.137939,64.621284 208.691483,57.671577 207.803955,47.845493 
	C208.562881,40.790401 209.267212,34.425659 209.971527,28.060917 
	C212.731979,24.437780 215.492432,20.814642 218.815796,17.159195 
	C227.593658,12.610273 236.145569,10.362389 245.437500,13.355675 
	C247.921997,14.156031 250.363174,15.090938 252.824234,15.964073 
	C255.486267,18.422358 258.148285,20.880642 260.960876,23.997879 
	C262.103424,25.760918 263.095459,26.865002 264.087463,27.969090 
	C264.087463,27.969091 264.019684,27.987083 263.773560,28.308561 
	C264.343201,35.143627 265.158966,41.657215 265.974701,48.170803 
	C263.343353,60.407085 255.250244,67.315598 243.106186,71.264221 
	C242.303757,76.247437 242.229385,80.895966 242.018097,85.538254 
	C241.899338,88.147392 243.037415,89.048958 245.572159,89.021683 
	C257.058655,88.898079 268.546326,88.883652 280.482910,88.885376 
	C288.546600,90.004074 296.160950,91.067337 304.069000,92.356339 
	C313.847168,96.985336 323.331665,101.388588 332.816132,105.791840 
M123.932381,396.955811 
	C123.932381,396.955811 123.806374,397.023956 123.961266,397.609680 
	C124.303246,397.789673 124.645226,397.969666 124.949326,397.991760 
	C124.949326,397.991760 124.791702,398.030762 124.953987,398.615326 
	C125.297188,398.793243 125.640381,398.971161 125.942581,398.993469 
	C125.942581,398.993469 125.787384,399.035828 125.950752,399.622589 
	C126.292816,399.814758 126.634880,400.006927 127.046417,400.070648 
	C127.046417,400.070648 126.918663,399.999878 126.984779,400.592896 
	C127.294922,400.829956 127.605057,401.067017 128.237228,401.884613 
	C129.910889,403.274475 131.584534,404.664307 133.615311,406.350708 
	C136.067322,387.359833 145.043121,374.107605 153.363663,366.763702 
	C164.420273,357.004944 177.105942,349.095734 193.615906,349.036835 
	C194.132065,349.091949 194.648224,349.147095 195.844009,349.605835 
	C196.658356,349.735229 197.472595,349.977051 198.287048,349.977722 
	C223.530563,349.998871 248.774094,350.008209 274.017548,349.963226 
	C275.292206,349.960968 276.565948,349.458984 278.633148,349.090027 
	C279.158386,349.001709 279.683594,348.913391 281.048004,348.884735 
	C314.426147,353.713898 333.307190,373.609283 339.883942,406.177460 
	C374.762390,380.003967 404.405914,305.789398 392.647491,276.505524 
	C386.113129,278.142578 379.790466,280.281372 373.296295,281.177124 
	C368.153076,281.886536 365.848816,284.792847 363.161957,288.645508 
	C358.114014,295.883759 352.872131,303.192749 346.563080,309.283386 
	C341.050079,314.605530 334.122864,318.555878 327.533173,322.649994 
	C314.263947,330.894012 299.776917,335.509277 283.236389,335.974365 
	C281.794281,335.942719 280.352203,335.911041 278.228424,335.447479 
	C277.083160,335.300415 275.938049,335.026123 274.792633,335.025024 
	C249.335526,335.000458 223.878372,334.992310 198.421341,335.041931 
	C196.980911,335.044739 195.541489,335.568726 193.256821,335.936890 
	C192.125320,336.012451 190.993835,336.088013 188.992706,336.084808 
	C175.699265,335.274902 162.857147,332.279510 151.160416,325.993744 
	C132.986847,316.227386 118.023712,302.817627 107.509216,284.753937 
	C106.634415,283.251007 104.278984,282.244415 102.414848,281.752930 
	C97.289551,280.401611 91.989487,279.697266 86.890190,278.267487 
	C81.455460,276.743591 79.510025,277.543365 79.640778,283.142578 
	C79.871765,293.033905 79.535500,303.162201 81.578835,312.734039 
	C84.503876,326.436157 88.566254,340.030396 93.598320,353.110840 
	C98.906586,366.909210 107.173332,379.237427 117.579704,390.622925 
	C118.232155,391.230743 118.884613,391.838531 119.723427,392.365417 
	C119.723427,392.365417 119.635376,392.182312 119.557121,392.847778 
	C120.011726,393.309814 120.466331,393.771851 121.079475,394.745300 
	C121.615784,395.197510 122.152092,395.649750 122.968353,396.626862 
	C123.312813,396.778290 123.657272,396.929718 123.932381,396.955811 
M368.796875,238.267105 
	C368.784637,237.548965 368.772400,236.830811 368.880798,235.168335 
	C368.903198,219.368500 368.976318,203.568298 368.867981,187.769363 
	C368.857361,186.223373 367.729950,184.685043 367.000824,182.393677 
	C367.178406,180.948532 367.814453,179.379196 367.461853,178.077667 
	C364.288330,166.363495 361.531525,154.657822 354.751099,144.071686 
	C348.415924,134.180771 341.077850,125.405418 331.813202,118.555717 
	C317.337402,107.853203 300.848694,101.705475 282.210907,99.413879 
	C279.899109,99.281471 277.587372,99.035599 275.275482,99.033936 
	C247.562347,99.014023 219.849228,99.030319 191.350693,99.223129 
	C190.723480,99.437790 190.110840,99.770569 189.466934,99.850060 
	C164.978760,102.872917 144.095917,112.927719 127.835266,131.754807 
	C114.859093,146.779022 107.295563,164.158310 105.271255,184.022308 
	C104.861725,184.035233 104.452194,184.048157 103.839165,183.628494 
	C103.586517,183.663315 103.318794,183.661072 103.089836,183.754181 
	C103.015144,183.784531 103.024162,184.063354 103.024078,184.228561 
	C103.014351,202.863480 102.996948,221.498413 103.047997,240.133163 
	C103.049614,240.724716 103.756859,241.314331 104.700523,241.916245 
	C105.077232,241.906357 105.453934,241.896484 105.964447,242.761429 
	C106.309349,245.366730 106.709183,247.966125 106.990044,250.578308 
	C108.564003,265.217010 116.010475,277.385223 123.985138,289.088287 
	C130.109772,298.076416 138.145309,305.594238 147.718552,310.954437 
	C154.566483,314.788727 161.917358,317.724792 169.467667,321.661255 
	C177.632614,323.033325 185.797562,324.405426 194.896255,325.907867 
	C223.132919,325.922791 251.371033,326.088898 279.605011,325.821533 
	C285.072388,325.769745 290.523743,324.025299 296.753204,322.912537 
	C314.222260,319.186646 329.353119,310.923553 341.409088,297.902191 
	C348.000702,290.782715 353.302399,282.413239 358.735199,274.305542 
	C360.754150,271.292542 361.487549,267.418030 363.460144,263.617981 
	C365.011841,256.784058 366.563538,249.950150 368.477875,242.502258 
	C368.559998,241.329437 368.642120,240.156601 368.796875,238.267105 
M379.000793,236.830978 
	C378.948608,240.496063 378.896423,244.161148 378.920258,248.678802 
	C377.465576,255.340866 376.010925,262.002930 374.507294,268.889221 
	C380.888184,270.302917 385.026978,266.166504 389.654633,263.180267 
	C396.973816,258.457184 401.252563,251.149902 403.587433,243.443268 
	C405.558167,236.938431 405.314301,229.523422 404.888000,222.582672 
	C404.066345,209.205795 394.840302,194.843552 380.887146,189.521133 
	C380.232239,189.371063 379.577332,189.220978 378.470032,189.744415 
	C378.353333,204.541824 378.227142,219.339203 378.154297,234.136826 
	C378.151337,234.737152 378.651337,235.339951 379.000793,236.830978 
M93.920448,210.992737 
	C93.935188,204.713852 93.978683,198.434845 93.947556,192.156189 
	C93.937935,190.215088 94.135963,187.654053 90.594559,190.755615 
	C79.270950,195.192108 72.479767,204.105347 70.214005,215.335312 
	C67.923622,226.687286 66.991791,238.334900 72.724251,249.699493 
	C77.149872,258.473267 82.721321,265.100006 92.659431,268.588287 
	C95.191841,269.327515 97.724243,270.066742 100.148376,270.774353 
	C98.280663,262.244324 95.800835,254.564987 95.070633,246.722763 
	C93.995842,235.179642 94.168968,223.520325 93.920448,210.992737 
M297.573914,365.153473 
	C290.374573,363.111847 283.217896,359.507233 275.968262,359.309479 
	C249.886475,358.597961 223.771011,358.854828 197.673859,359.185669 
	C192.135086,359.255859 186.594330,361.070648 181.114807,362.341705 
	C179.993561,362.601807 179.142548,364.026764 177.444489,365.095154 
	C171.203415,369.306976 163.883850,372.542328 158.976883,377.962067 
	C151.816879,385.870300 147.239441,395.620453 145.622528,406.617554 
	C144.544601,413.949005 144.783188,416.107697 150.807297,419.840881 
	C167.009521,429.881500 183.958649,438.007965 202.934158,441.580536 
	C221.395081,445.056213 239.800644,447.705536 258.520020,443.888885 
	C271.548340,441.232544 284.728027,439.205536 296.639465,432.615448 
	C305.154358,427.904480 313.835388,423.465698 322.624695,419.289368 
	C327.879883,416.792267 329.865753,413.026611 328.924988,407.520386 
	C328.604248,405.643219 327.974701,403.813873 327.421967,401.982086 
	C322.538391,385.797119 313.337311,373.154541 297.573914,365.153473 
M218.142715,38.116795 
	C218.042343,39.274471 217.793671,40.441315 217.864578,41.588402 
	C218.565063,52.920094 225.741364,59.431770 237.511871,60.062317 
	C247.314056,60.587421 255.397552,51.522549 255.258347,41.213993 
	C255.134872,32.071663 248.327881,24.287138 239.289368,22.951771 
	C230.609634,21.669413 221.448257,27.954956 218.142715,38.116795 
z"/>
<path fill="#38AB7D" opacity="1.000000" stroke="none" 
	d="
M377.355042,74.086174 
	C380.747314,71.421852 384.162842,71.055550 387.035461,73.723389 
	C389.680359,76.179733 388.953796,79.529381 386.935150,82.018852 
	C384.845367,84.596107 382.237030,86.820816 379.586670,88.848282 
	C378.164368,89.936340 376.217834,90.427452 374.436462,90.939514 
	C370.629028,92.033989 369.354462,88.765419 368.503754,86.454895 
	C367.991058,85.062386 369.320953,82.567818 370.479218,81.079231 
	C372.397797,78.613487 374.845917,76.559799 377.355042,74.086174 
z"/>
<path fill="#32A97A" opacity="1.000000" stroke="none" 
	d="
M397.126709,104.934525 
	C401.720337,107.367355 402.637421,113.415588 398.289551,114.582382 
	C393.132660,115.966286 387.057770,116.357201 381.987213,114.966751 
	C376.689819,113.514084 376.852539,109.602478 382.119629,105.094650 
	C387.641449,104.956787 392.384064,104.945656 397.126709,104.934525 
z"/>
<path fill="#34AA7B" opacity="1.000000" stroke="none" 
	d="
M353.008606,81.241623 
	C349.971954,84.275925 347.098297,83.566551 344.156433,80.061012 
	C343.984955,73.816185 343.968567,68.373299 343.952179,62.930412 
	C343.952179,62.930412 343.993317,62.979225 344.179565,62.850716 
	C344.577728,62.455795 344.789642,62.189384 345.001556,61.922966 
	C345.001556,61.922962 344.976135,61.986118 345.374939,62.002068 
	C348.249573,62.295677 350.725464,62.573338 353.201324,62.851002 
	C353.201324,62.851002 353.160919,62.913338 353.244324,63.291428 
	C353.566925,69.140762 353.806122,74.612000 354.045288,80.083244 
	C354.045288,80.083244 354.011963,80.020332 353.825623,80.175308 
	C353.429047,80.634056 353.218811,80.937836 353.008606,81.241623 
z"/>
<path fill="#44A07A" opacity="1.000000" stroke="none" 
	d="
M409.340668,258.936401 
	C413.930695,248.508789 415.536865,237.455872 415.336548,225.799240 
	C415.135193,214.084808 412.320709,203.587219 405.279266,194.230972 
	C404.692352,193.451080 404.314331,192.513931 403.937866,191.294159 
	C411.202454,197.949295 415.558075,206.967133 416.569427,216.376938 
	C417.783173,227.669724 418.817017,239.501205 413.950165,250.548874 
	C412.702728,253.380524 411.105927,256.058258 409.340668,258.936401 
z"/>
<path fill="#5CAF8F" opacity="1.000000" stroke="none" 
	d="
M206.738541,454.128479 
	C215.056427,454.549286 223.614334,455.658142 232.189743,455.815918 
	C241.807343,455.992828 251.440781,455.309723 261.533936,455.031250 
	C259.050629,455.651001 256.108795,456.696350 253.149368,456.748840 
	C241.714249,456.951813 230.267838,457.044037 218.837952,456.729675 
	C214.869003,456.620544 210.935806,455.211945 206.738541,454.128479 
z"/>
<path fill="#3D9E78" opacity="1.000000" stroke="none" 
	d="
M65.591743,195.776337 
	C63.586239,202.030121 60.286743,207.979492 59.106094,214.323227 
	C57.730682,221.713425 58.208763,229.448593 57.664490,237.322281 
	C57.020023,237.084824 56.593609,236.559158 56.167191,236.033478 
	C55.029549,222.484253 56.134125,209.378235 63.793564,197.575714 
	C64.229614,196.903793 64.752350,196.288147 65.591743,195.776337 
z"/>
<path fill="#4AA781" opacity="1.000000" stroke="none" 
	d="
M280.033569,88.829926 
	C268.546326,88.883652 257.058655,88.898079 245.572159,89.021683 
	C243.037415,89.048958 241.899338,88.147392 242.018097,85.538254 
	C242.229385,80.895966 242.303757,76.247437 242.740601,71.319107 
	C243.045822,76.148613 243.045822,81.260544 243.045822,87.038414 
	C248.269577,87.038414 253.185425,87.038414 258.913025,87.320641 
	C261.661194,87.742844 263.596222,87.905144 265.534149,88.018402 
	C270.366608,88.300797 275.200348,88.560890 280.033569,88.829926 
z"/>
<path fill="#4AA781" opacity="1.000000" stroke="none" 
	d="
M113.653275,130.156097 
	C110.300545,136.744568 106.184052,143.214691 103.058754,150.132584 
	C100.273331,156.298157 98.584366,162.959076 95.992340,169.703674 
	C95.573174,170.005966 95.174454,169.998779 95.174454,169.998779 
	C97.704384,155.137634 103.983650,141.987411 113.653275,130.156097 
z"/>
<path fill="#71CDA7" opacity="1.000000" stroke="none" 
	d="
M400.470947,326.742462 
	C401.477722,317.902710 402.809082,308.909729 404.396698,299.116577 
	C405.055847,293.219025 405.458771,288.121704 405.861694,283.024384 
	C404.897827,296.301392 403.986237,309.582764 402.887573,322.848602 
	C402.780212,324.144348 401.520416,325.344666 400.470947,326.742462 
z"/>
<path fill="#4CAB86" opacity="1.000000" stroke="none" 
	d="
M230.690109,85.238953 
	C232.963379,89.459915 229.611786,88.925789 227.262726,88.939568 
	C216.146347,89.004807 205.029282,88.951942 193.803070,88.676208 
	C199.787582,87.999672 205.881485,87.588097 211.975403,87.176529 
	C216.731308,87.127144 221.493042,87.193977 226.239487,86.955856 
	C227.620087,86.886597 228.956970,85.945755 230.690109,85.238953 
z"/>
<path fill="#6EB79A" opacity="1.000000" stroke="none" 
	d="
M211.512634,87.101105 
	C205.881485,87.588097 199.787582,87.999672 193.336365,88.617470 
	C184.265182,90.239471 175.551285,91.655243 166.431519,92.862976 
	C166.025635,92.654938 165.992905,92.168236 165.992905,92.168236 
	C171.461548,90.785324 176.863861,88.700554 182.413635,88.175888 
	C191.910416,87.278076 201.499527,87.356956 211.512634,87.101105 
z"/>
<path fill="#71CDA7" opacity="1.000000" stroke="none" 
	d="
M68.797287,293.070892 
	C69.825928,302.423950 70.854561,311.777008 71.879242,321.543640 
	C70.913193,319.703796 69.303879,317.507172 69.100296,315.187225 
	C68.188408,304.795380 67.676811,294.368408 67.330788,283.810059 
	C68.026329,286.800964 68.411812,289.935944 68.797287,293.070892 
z"/>
<path fill="#44A07A" opacity="1.000000" stroke="none" 
	d="
M405.919067,282.573914 
	C405.458771,288.121704 405.055847,293.219025 404.456909,298.675293 
	C403.870514,288.639282 403.074829,278.233673 403.349091,267.856293 
	C403.426361,264.931335 406.639160,262.089203 408.740540,259.100281 
	C407.920471,263.491730 403.661102,266.935577 404.966705,272.338104 
	C405.730072,275.496765 405.667480,278.855011 405.919067,282.573914 
z"/>
<path fill="#6EB79A" opacity="1.000000" stroke="none" 
	d="
M280.482910,88.885376 
	C275.200348,88.560890 270.366608,88.300797 265.534149,88.018402 
	C263.596222,87.905144 261.661194,87.742844 259.379272,87.380104 
	C273.144989,86.594109 287.210297,86.736015 301.056152,90.021828 
	C302.305298,90.318275 303.496460,90.859001 304.573914,91.649261 
	C304.213928,92.051697 303.994598,92.091148 303.775299,92.130600 
	C296.160950,91.067337 288.546600,90.004074 280.482910,88.885376 
z"/>
<path fill="#71CDA7" opacity="1.000000" stroke="none" 
	d="
M252.772095,15.612056 
	C250.363174,15.090938 247.921997,14.156031 245.437500,13.355675 
	C236.145569,10.362389 227.593658,12.610273 219.117340,17.019054 
	C227.603134,9.208337 242.500488,8.481954 252.772095,15.612056 
z"/>
<path fill="#3FA77C" opacity="1.000000" stroke="none" 
	d="
M68.876762,292.602966 
	C68.411812,289.935944 68.026329,286.800964 67.402740,283.349182 
	C67.399918,280.097443 67.985123,277.138306 67.784065,274.233643 
	C67.518127,270.391785 66.636658,266.592529 65.977531,262.381165 
	C67.270012,264.244843 69.687218,266.476227 69.742424,268.764587 
	C69.930115,276.543884 69.283966,284.343292 68.876762,292.602966 
z"/>
<path fill="#4CAB86" opacity="1.000000" stroke="none" 
	d="
M304.069000,92.356339 
	C303.994598,92.091148 304.213928,92.051697 304.765686,91.979141 
	C315.428497,94.077858 324.883728,98.056175 332.847809,105.452759 
	C323.331665,101.388588 313.847168,96.985336 304.069000,92.356339 
z"/>
<path fill="#5CAF8F" opacity="1.000000" stroke="none" 
	d="
M94.995071,170.352081 
	C95.174454,169.998779 95.573174,170.005966 95.772530,170.004639 
	C96.018944,174.711960 94.483978,177.548828 89.287201,179.115448 
	C84.076965,180.686157 79.460190,184.225479 74.230339,186.923370 
	C76.624321,184.764038 79.164986,182.224319 82.172104,180.496338 
	C85.680664,178.480179 89.596710,177.173141 93.525871,175.476410 
	C93.899773,174.093369 94.357735,172.399384 94.995071,170.352081 
z"/>
<path fill="#4AA781" opacity="1.000000" stroke="none" 
	d="
M72.691963,327.336914 
	C75.742722,335.517914 78.630127,343.981537 81.468193,352.919556 
	C81.216972,353.620331 81.044357,353.867188 80.901001,354.134521 
	C78.110207,345.296204 75.319412,336.457886 72.691963,327.336914 
z"/>
<path fill="#5DBD96" opacity="1.000000" stroke="none" 
	d="
M80.953773,354.499786 
	C81.044357,353.867188 81.216972,353.620331 81.595924,353.253052 
	C85.509613,360.510559 89.246223,367.908966 92.825760,375.647552 
	C92.500160,375.992737 92.331642,375.997742 92.163116,376.002747 
	C88.444260,368.956848 84.725403,361.910950 80.953773,354.499786 
z"/>
<path fill="#4AA781" opacity="1.000000" stroke="none" 
	d="
M378.040894,172.465820 
	C375.090546,164.147934 372.086670,155.411926 369.059906,146.305374 
	C374.806427,153.684204 377.315765,162.550995 378.040894,172.465820 
z"/>
<path fill="#5DBD96" opacity="1.000000" stroke="none" 
	d="
M380.361694,376.846313 
	C383.992706,368.910492 387.934692,360.836273 392.199432,352.581635 
	C392.710663,352.610962 392.889069,352.828918 393.057495,353.055023 
	C388.929199,360.939301 384.800934,368.823578 380.361694,376.846313 
z"/>
<path fill="#4AA781" opacity="1.000000" stroke="none" 
	d="
M56.099289,236.457642 
	C56.593609,236.559158 57.020023,237.084824 57.626671,237.787018 
	C60.163387,245.104050 62.519875,252.244598 64.919418,259.742493 
	C63.304539,257.555054 61.081062,255.207016 60.112103,252.422440 
	C58.357292,247.379532 57.350475,242.076340 56.099289,236.457642 
z"/>
<path fill="#4AA781" opacity="1.000000" stroke="none" 
	d="
M393.366821,352.854706 
	C392.889069,352.828918 392.710663,352.610962 392.361511,352.264740 
	C394.857025,344.513672 397.513275,336.899048 400.518494,329.224426 
	C398.470367,336.994415 396.073242,344.824402 393.366821,352.854706 
z"/>
<path fill="#4AA781" opacity="1.000000" stroke="none" 
	d="
M168.094254,442.333923 
	C175.465469,444.735291 182.997894,447.456329 190.605057,450.501923 
	C183.205017,448.102173 175.730240,445.377869 168.094254,442.333923 
z"/>
<path fill="#4CAB86" opacity="1.000000" stroke="none" 
	d="
M165.632507,92.232086 
	C165.992905,92.168236 166.025635,92.654938 166.033875,92.898712 
	C158.242249,96.758118 150.442398,100.373756 142.278625,103.980309 
	C149.097183,100.309830 156.277557,96.644264 163.466232,92.994987 
	C164.038910,92.704277 164.668808,92.526299 165.632507,92.232086 
z"/>
<path fill="#4CAB86" opacity="1.000000" stroke="none" 
	d="
M280.389923,451.042969 
	C287.415436,448.353943 294.856903,445.642365 302.684082,442.973694 
	C295.648499,445.684540 288.227173,448.352509 280.389923,451.042969 
z"/>
<path fill="#6EB79A" opacity="1.000000" stroke="none" 
	d="
M209.614990,28.148659 
	C209.267212,34.425659 208.562881,40.790401 207.870178,47.564384 
	C207.306824,47.785637 206.232605,47.606297 206.229187,47.408421 
	C206.115585,40.847355 204.533737,34.030430 209.614990,28.148659 
z"/>
<path fill="#3D9E78" opacity="1.000000" stroke="none" 
	d="
M92.236633,376.333679 
	C92.331642,375.997742 92.500160,375.992737 92.921814,375.993896 
	C96.702774,381.123871 100.230598,386.247742 103.825638,391.705139 
	C100.031944,386.913971 96.171043,381.789307 92.236633,376.333679 
z"/>
<path fill="#53B58E" opacity="1.000000" stroke="none" 
	d="
M149.042358,432.354645 
	C155.173615,435.169128 161.440247,438.304626 167.868866,441.751526 
	C161.746460,438.933868 155.462097,435.804749 149.042358,432.354645 
z"/>
<path fill="#71CDA7" opacity="1.000000" stroke="none" 
	d="
M266.350281,47.930340 
	C265.158966,41.657215 264.343201,35.143627 263.790222,28.277706 
	C268.616760,34.016853 266.744354,40.978722 266.350281,47.930340 
z"/>
<path fill="#6EB79A" opacity="1.000000" stroke="none" 
	d="
M396.936157,104.578262 
	C392.384064,104.945656 387.641449,104.956787 382.432526,104.934006 
	C386.764496,101.879768 391.725403,102.404045 396.936157,104.578262 
z"/>
<path fill="#4AA781" opacity="1.000000" stroke="none" 
	d="
M303.368774,443.056335 
	C309.056366,440.011902 315.128723,436.952637 321.574097,433.958313 
	C315.882568,437.029358 309.818054,440.035431 303.368774,443.056335 
z"/>
<path fill="#3D9E78" opacity="1.000000" stroke="none" 
	d="
M112.063675,402.335632 
	C115.314957,405.137421 118.694084,408.250183 122.022667,411.713318 
	C118.711929,408.924652 115.451721,405.785645 112.063675,402.335632 
z"/>
<path fill="#5CAF8F" opacity="1.000000" stroke="none" 
	d="
M354.410828,79.844490 
	C353.806122,74.612000 353.566925,69.140762 353.223938,63.260368 
	C353.746674,63.718353 354.892578,64.573425 354.913025,65.454628 
	C355.022400,70.168068 354.850830,74.888031 354.410828,79.844490 
z"/>
<path fill="#5CAF8F" opacity="1.000000" stroke="none" 
	d="
M343.583191,63.162910 
	C343.968567,68.373299 343.984955,73.816185 343.996918,79.744713 
	C343.733032,74.618706 343.473602,69.007057 343.583191,63.162910 
z"/>
<path fill="#4CAB86" opacity="1.000000" stroke="none" 
	d="
M128.655426,113.063553 
	C126.514626,115.686043 124.066238,118.440063 121.275414,121.075455 
	C123.404602,118.369576 125.876221,115.782333 128.655426,113.063553 
z"/>
<path fill="#5CAF8F" opacity="1.000000" stroke="none" 
	d="
M353.270386,62.470177 
	C350.725464,62.573338 348.249573,62.295677 345.345825,61.984360 
	C347.773468,59.060360 350.574036,59.506989 353.270386,62.470177 
z"/>
<path fill="#3D9E78" opacity="1.000000" stroke="none" 
	d="
M69.608170,190.750504 
	C68.816071,192.519913 67.674286,194.135742 66.218422,195.861069 
	C67.022392,194.179352 68.140434,192.388138 69.608170,190.750504 
z"/>
<path fill="#71CDA7" opacity="1.000000" stroke="none" 
	d="
M264.049194,27.634850 
	C263.095459,26.865002 262.103424,25.760918 261.092102,24.306831 
	C262.052155,25.071423 263.031525,26.186016 264.049194,27.634850 
z"/>
<path fill="#3D9E78" opacity="1.000000" stroke="none" 
	d="
M107.875694,397.383667 
	C108.766365,397.848694 109.761116,398.657288 110.869324,399.778320 
	C109.981781,399.302917 108.980774,398.515045 107.875694,397.383667 
z"/>
<path fill="#44A07A" opacity="1.000000" stroke="none" 
	d="
M401.973755,188.659760 
	C400.955017,188.186493 399.846649,187.410614 398.900574,186.290070 
	C400.003265,186.749329 400.943695,187.553238 401.973755,188.659760 
z"/>
<path fill="#3D9E78" opacity="1.000000" stroke="none" 
	d="
M124.059563,414.340393 
	C124.907928,414.534119 125.878891,415.033478 126.909348,415.882629 
	C126.039948,415.703613 125.111053,415.174805 124.059563,414.340393 
z"/>
<path fill="#4CAB86" opacity="1.000000" stroke="none" 
	d="
M131.686768,111.042206 
	C131.199783,111.799805 130.380997,112.543037 129.250122,113.119141 
	C129.743668,112.310623 130.549332,111.669235 131.686768,111.042206 
z"/>
<path fill="#4CAB86" opacity="1.000000" stroke="none" 
	d="
M119.641663,122.042397 
	C119.476311,122.894951 119.000504,123.854858 118.177719,124.886688 
	C118.330902,124.022316 118.831047,123.086037 119.641663,122.042397 
z"/>
<path fill="#5CAF8F" opacity="1.000000" stroke="none" 
	d="
M73.485611,186.846558 
	C73.445389,187.630859 72.942825,188.360672 72.178314,189.313858 
	C72.285339,188.622177 72.654305,187.707138 73.485611,186.846558 
z"/>
<path fill="#44A07A" opacity="1.000000" stroke="none" 
	d="
M398.913177,185.610138 
	C398.237518,185.817551 397.434662,185.710388 396.400452,185.355286 
	C397.041412,185.170074 397.913696,185.232819 398.913177,185.610138 
z"/>
<path fill="#4AA781" opacity="1.000000" stroke="none" 
	d="
M64.658058,260.285034 
	C65.260460,260.476959 65.622971,260.956726 65.990089,261.750824 
	C65.469177,261.567719 64.943672,261.070312 64.658058,260.285034 
z"/>
<path fill="#3D9E78" opacity="1.000000" stroke="none" 
	d="
M110.704651,400.300140 
	C111.304306,400.477173 111.701866,400.952362 112.035095,401.744873 
	C111.481361,401.574249 110.991966,401.086273 110.704651,400.300140 
z"/>
<path fill="#3D9E78" opacity="1.000000" stroke="none" 
	d="
M122.009583,412.274567 
	C122.274780,412.166718 122.616661,412.316559 122.969635,412.767090 
	C122.682571,412.889282 122.384415,412.710785 122.009583,412.274567 
z"/>
<path fill="#3D9E78" opacity="1.000000" stroke="none" 
	d="
M123.000595,413.284058 
	C123.278854,413.166626 123.625443,413.312531 123.975876,413.763489 
	C123.676117,413.894806 123.372528,413.721100 123.000595,413.284058 
z"/>
<path fill="#4CAB86" opacity="1.000000" stroke="none" 
	d="
M120.709427,120.995544 
	C120.841957,121.301727 120.712837,121.677017 120.254982,122.011307 
	C120.100090,121.668419 120.273933,121.366539 120.709427,120.995544 
z"/>
<path fill="#4CAB86" opacity="1.000000" stroke="none" 
	d="
M279.448334,451.744659 
	C279.373260,451.582306 279.547363,451.390167 279.916809,451.106873 
	C279.969177,451.225525 279.830963,451.458618 279.448334,451.744659 
z"/>
<path fill="#5CAF8F" opacity="1.000000" stroke="none" 
	d="
M344.741272,62.006248 
	C344.789642,62.189384 344.577728,62.455795 344.148987,62.859932 
	C344.115112,62.694946 344.298065,62.392235 344.741272,62.006248 
z"/>
<path fill="#44A07A" opacity="1.000000" stroke="none" 
	d="
M402.990356,189.726334 
	C402.720428,189.836258 402.374023,189.688660 402.024658,189.236145 
	C402.319092,189.110428 402.616516,189.289612 402.990356,189.726334 
z"/>
<path fill="#3D9E78" opacity="1.000000" stroke="none" 
	d="
M71.114677,189.660126 
	C71.194168,190.205887 70.876106,190.499176 70.242126,190.871368 
	C70.189835,190.436066 70.453476,189.921860 71.114677,189.660126 
z"/>
<path fill="#44A07A" opacity="1.000000" stroke="none" 
	d="
M403.989746,190.722610 
	C403.720612,190.834534 403.373688,190.689148 403.021332,190.238464 
	C403.314575,190.110535 403.613251,190.287918 403.989746,190.722610 
z"/>
<path fill="#5CAF8F" opacity="1.000000" stroke="none" 
	d="
M353.258087,81.097626 
	C353.218811,80.937836 353.429047,80.634056 353.857361,80.159203 
	C353.886169,80.309967 353.696869,80.631798 353.258087,81.097626 
z"/>
<path fill="#000000" opacity="1.000000" stroke="none" 
	d="
M169.043823,321.061615 
	C161.917358,317.724792 154.566483,314.788727 147.718552,310.954437 
	C138.145309,305.594238 130.109772,298.076416 123.985138,289.088287 
	C116.010475,277.385223 108.564003,265.217010 106.990044,250.578308 
	C106.709183,247.966125 106.309349,245.366730 105.939850,241.875275 
	C105.869713,237.641678 105.824188,234.294250 105.845840,230.484619 
	C105.885757,218.007858 105.858490,205.993317 105.906494,193.533066 
	C105.949112,190.083664 105.916466,187.079987 105.883827,184.076294 
	C107.295563,164.158310 114.859093,146.779022 127.835266,131.754807 
	C144.095917,112.927719 164.978760,102.872917 189.466934,99.850060 
	C190.110840,99.770569 190.723480,99.437790 191.940582,99.505264 
	C222.633881,99.829086 252.737289,99.870773 282.840698,99.912445 
	C300.848694,101.705475 317.337402,107.853203 331.813202,118.555717 
	C341.077850,125.405418 348.415924,134.180771 354.751099,144.071686 
	C361.531525,154.657822 364.288330,166.363495 367.461853,178.077667 
	C367.814453,179.379196 367.178406,180.948532 367.033478,183.223602 
	C367.093689,201.369781 367.121246,218.686035 367.085419,236.455963 
	C365.617096,245.918549 364.212128,254.927460 362.807190,263.936371 
	C361.487549,267.418030 360.754150,271.292542 358.735199,274.305542 
	C353.302399,282.413239 348.000702,290.782715 341.409088,297.902191 
	C329.353119,310.923553 314.222260,319.186646 295.921753,322.957825 
	C281.626831,323.333405 268.164917,323.832275 254.699554,323.955566 
	C233.145309,324.152954 211.588806,324.101257 189.605942,324.080200 
	C182.467026,323.024261 175.755432,322.042938 169.043823,321.061615 
M346.997223,193.114014 
	C346.093536,183.447296 343.385315,174.464294 336.752991,166.257019 
	C331.594269,160.763107 326.974304,154.597992 321.155060,149.926971 
	C311.568481,142.232010 300.780670,136.525635 287.623932,135.482635 
	C286.847198,135.306381 286.070465,135.130127 285.121033,134.785080 
	C285.121033,134.785080 284.941010,134.946030 284.554688,134.173309 
	C252.370956,134.145752 220.187225,134.118179 187.425110,134.083649 
	C186.949097,134.409164 186.473099,134.734695 185.265884,135.349060 
	C177.060257,138.138901 168.284500,139.872971 160.765076,143.933548 
	C143.971146,153.002472 132.450195,166.867676 128.078934,185.881912 
	C127.280540,189.354797 127.317902,193.019821 126.265854,197.087830 
	C125.843826,198.285034 125.059769,199.481079 125.055855,200.679642 
	C125.017487,212.439194 125.109024,224.199173 125.080017,236.777100 
	C125.382980,238.205536 125.731163,239.626083 125.981560,241.063675 
	C127.564728,250.153198 130.026108,258.890747 136.225876,266.865387 
	C144.684006,279.312958 155.614624,288.701569 170.236008,294.645203 
	C178.925705,299.381104 188.623489,299.503998 198.016418,299.825500 
	C215.119431,300.410889 232.258057,300.129517 249.379135,299.951569 
	C260.558258,299.835358 271.732666,299.263763 283.745209,298.994415 
	C288.831177,297.947906 293.917114,296.901367 299.592865,295.743103 
	C299.998657,295.453156 300.364014,295.026611 300.815979,294.892914 
	C320.118958,289.183044 332.581451,275.552124 341.634033,258.556396 
	C344.759399,252.688629 347.669159,246.118866 346.916168,238.892410 
	C347.281097,238.092728 347.961334,237.294052 347.963928,236.493179 
	C348.007111,223.194824 347.982819,209.896072 347.902771,196.597855 
	C347.897461,195.720261 347.322357,194.846115 346.997223,193.114014 
z"/>
<path fill="#87DBBA" opacity="1.000000" stroke="none" 
	d="
M122.688400,396.101959 
	C122.152092,395.649750 121.615784,395.197510 120.956085,394.169922 
	C120.433594,393.123810 120.034477,392.653076 119.635376,392.182312 
	C119.635376,392.182312 119.723427,392.365417 119.660538,392.094025 
	C118.862473,391.247406 118.127289,390.672211 117.392090,390.097015 
	C107.173332,379.237427 98.906586,366.909210 93.598320,353.110840 
	C88.566254,340.030396 84.503876,326.436157 81.578835,312.734039 
	C79.535500,303.162201 79.871765,293.033905 79.640778,283.142578 
	C79.510025,277.543365 81.455460,276.743591 86.890190,278.267487 
	C91.989487,279.697266 97.289551,280.401611 102.414848,281.752930 
	C104.278984,282.244415 106.634415,283.251007 107.509216,284.753937 
	C118.023712,302.817627 132.986847,316.227386 151.160416,325.993744 
	C162.857147,332.279510 175.699265,335.274902 189.483398,336.320618 
	C189.974091,336.556427 190.041122,336.959534 190.101166,337.231384 
	C190.788071,337.655701 191.414810,337.941010 192.041840,337.941650 
	C221.288010,337.971283 250.534210,337.991455 279.780273,337.936829 
	C281.187897,337.934174 282.594238,337.247192 284.005096,336.685791 
	C284.009033,336.492706 284.093842,336.115814 284.093842,336.115814 
	C299.776917,335.509277 314.263947,330.894012 327.533173,322.649994 
	C334.122864,318.555878 341.050079,314.605530 346.563080,309.283386 
	C352.872131,303.192749 358.114014,295.883759 363.161957,288.645508 
	C365.848816,284.792847 368.153076,281.886536 373.296295,281.177124 
	C379.790466,280.281372 386.113129,278.142578 392.647491,276.505524 
	C404.405914,305.789398 374.762390,380.003967 339.883942,406.177460 
	C333.307190,373.609283 314.426147,353.713898 280.559509,348.657776 
	C280.071045,348.430786 279.968658,348.026062 279.642975,347.775024 
	C278.179749,347.352875 277.042358,347.033875 275.904602,347.032440 
	C250.046432,346.999573 224.188187,346.986481 198.330078,347.037354 
	C196.914093,347.040131 195.499252,347.630188 193.874603,348.095551 
	C193.395294,348.452179 193.125275,348.660126 192.855255,348.868103 
	C177.105942,349.095734 164.420273,357.004944 153.363663,366.763702 
	C145.043121,374.107605 136.067322,387.359833 133.615311,406.350708 
	C131.584534,404.664307 129.910889,403.274475 127.943924,401.352325 
	C127.406631,400.546661 127.162643,400.273254 126.918663,399.999878 
	C126.918663,399.999878 127.046417,400.070648 126.855545,399.901031 
	C126.372246,399.499542 126.079811,399.267700 125.787384,399.035828 
	C125.787384,399.035828 125.942581,398.993469 125.798630,398.853271 
	C125.367020,398.485626 125.079361,398.258209 124.791702,398.030762 
	C124.791702,398.030762 124.949326,397.991760 124.802078,397.854828 
	C124.372009,397.486572 124.089195,397.255249 123.806381,397.023956 
	C123.806374,397.023956 123.932381,396.955811 123.776306,396.820404 
	C123.309616,396.490662 122.999008,396.296326 122.688400,396.101959 
z"/>
<path fill="#000000" opacity="1.000000" stroke="none" 
	d="
M297.690826,365.813812 
	C313.337311,373.154541 322.538391,385.797119 327.421967,401.982086 
	C327.974701,403.813873 328.604248,405.643219 328.924988,407.520386 
	C329.865753,413.026611 327.879883,416.792267 322.624695,419.289368 
	C313.835388,423.465698 305.154358,427.904480 296.639465,432.615448 
	C284.728027,439.205536 271.548340,441.232544 258.520020,443.888885 
	C239.800644,447.705536 221.395081,445.056213 202.934158,441.580536 
	C183.958649,438.007965 167.009521,429.881500 150.807297,419.840881 
	C144.783188,416.107697 144.544601,413.949005 145.622528,406.617554 
	C147.239441,395.620453 151.816879,385.870300 158.976883,377.962067 
	C163.883850,372.542328 171.203415,369.306976 178.136719,364.850647 
	C185.250992,363.338623 191.673035,362.071075 198.549011,360.889496 
	C224.304611,360.928802 249.606293,360.882111 275.359558,360.908478 
	C283.104370,362.592285 290.397583,364.203064 297.690826,365.813812 
z"/>
<path fill="#000000" opacity="1.000000" stroke="none" 
	d="
M381.143921,189.933304 
	C394.840302,194.843552 404.066345,209.205795 404.888000,222.582672 
	C405.314301,229.523422 405.558167,236.938431 403.587433,243.443268 
	C401.252563,251.149902 396.973816,258.457184 389.654633,263.180267 
	C385.026978,266.166504 380.888184,270.302917 374.507294,268.889221 
	C376.010925,262.002930 377.465576,255.340866 379.099304,247.913162 
	C379.792755,237.797302 380.307190,228.447098 380.892059,218.622803 
	C380.940338,208.789047 380.918121,199.429382 380.973267,190.063477 
	C381.050598,190.057251 381.143921,189.933304 381.143921,189.933304 
z"/>
<path fill="#000000" opacity="1.000000" stroke="none" 
	d="
M92.183243,268.100189 
	C82.721321,265.100006 77.149872,258.473267 72.724251,249.699493 
	C66.991791,238.334900 67.923622,226.687286 70.214005,215.335312 
	C72.479767,204.105347 79.270950,195.192108 91.174812,190.614380 
	C92.170029,192.489197 92.949333,194.509262 92.927391,196.520554 
	C92.874672,201.352921 92.446098,206.181213 92.107224,211.475418 
	C91.587807,231.058701 92.238556,250.071869 98.270973,268.700012 
	C95.702408,268.446930 93.942825,268.273560 92.183243,268.100189 
z"/>
<path fill="#A4E4CB" opacity="1.000000" stroke="none" 
	d="
M218.252106,37.713509 
	C221.448257,27.954956 230.609634,21.669413 239.289368,22.951771 
	C248.327881,24.287138 255.134872,32.071663 255.258347,41.213993 
	C255.397552,51.522549 247.314056,60.587421 237.511871,60.062317 
	C225.741364,59.431770 218.565063,52.920094 217.864578,41.588402 
	C217.793671,40.441315 218.042343,39.274471 218.252106,37.713509 
z"/>
<path fill="#5DBD96" opacity="1.000000" stroke="none" 
	d="
M190.033249,324.154785 
	C211.588806,324.101257 233.145309,324.152954 254.699554,323.955566 
	C268.164917,323.832275 281.626831,323.333405 295.536377,323.032349 
	C290.523743,324.025299 285.072388,325.769745 279.605011,325.821533 
	C251.371033,326.088898 223.132919,325.922791 194.177673,325.667877 
	C192.317154,325.003540 191.175201,324.579163 190.033249,324.154785 
z"/>
<path fill="#71CDA7" opacity="1.000000" stroke="none" 
	d="
M198.095078,360.803528 
	C191.673035,362.071075 185.250992,363.338623 178.497955,364.760437 
	C179.142548,364.026764 179.993561,362.601807 181.114807,362.341705 
	C186.594330,361.070648 192.135086,359.255859 197.673859,359.185669 
	C223.771011,358.854828 249.886475,358.597961 275.968262,359.309479 
	C283.217896,359.507233 290.374573,363.111847 297.632385,365.483643 
	C290.397583,364.203064 283.104370,362.592285 275.024963,360.680237 
	C273.422119,360.253967 272.605469,360.020386 271.788666,360.019684 
	C248.497787,359.999481 225.206894,359.990082 201.916107,360.036255 
	C200.641937,360.038788 199.368729,360.536377 198.095078,360.803528 
z"/>
<path fill="#3D9E78" opacity="1.000000" stroke="none" 
	d="
M92.421341,268.344238 
	C93.942825,268.273560 95.702408,268.446930 98.270973,268.700012 
	C92.238556,250.071869 91.587807,231.058701 92.312805,211.587997 
	C92.990402,211.461029 93.400467,211.685760 93.810524,211.910492 
	C94.168968,223.520325 93.995842,235.179642 95.070633,246.722763 
	C95.800835,254.564987 98.280663,262.244324 100.148376,270.774353 
	C97.724243,270.066742 95.191841,269.327515 92.421341,268.344238 
z"/>
<path fill="#2A9368" opacity="1.000000" stroke="none" 
	d="
M367.148773,236.002304 
	C367.121246,218.686035 367.093689,201.369781 367.093506,183.598343 
	C367.729950,184.685043 368.857361,186.223373 368.867981,187.769363 
	C368.976318,203.568298 368.903198,219.368500 368.553009,235.613739 
	C367.866394,236.040207 367.507599,236.021255 367.148773,236.002304 
z"/>
<path fill="#32A97A" opacity="1.000000" stroke="none" 
	d="
M190.041122,336.959534 
	C190.041122,336.959534 189.974091,336.556427 189.918213,336.359985 
	C190.993835,336.088013 192.125320,336.012451 194.136734,335.946533 
	C222.981125,335.930573 250.945618,335.904968 278.910095,335.879395 
	C280.352203,335.911041 281.794281,335.942719 283.665100,336.045105 
	C284.093842,336.115814 284.009033,336.492706 283.536499,336.700897 
	C252.056351,336.925903 221.048737,336.942719 190.041122,336.959534 
z"/>
<path fill="#53B58E" opacity="1.000000" stroke="none" 
	d="
M282.525818,99.663162 
	C252.737289,99.870773 222.633881,99.829086 192.333282,99.412277 
	C219.849228,99.030319 247.562347,99.014023 275.275482,99.033936 
	C277.587372,99.035599 279.899109,99.281471 282.525818,99.663162 
z"/>
<path fill="#2A9368" opacity="1.000000" stroke="none" 
	d="
M193.235580,348.952454 
	C193.125275,348.660126 193.395294,348.452179 194.334717,348.132812 
	C223.325638,348.022949 251.647156,348.024506 279.968658,348.026062 
	C279.968658,348.026062 280.071045,348.430786 280.139954,348.627930 
	C279.683594,348.913391 279.158386,349.001709 277.784088,349.098206 
	C249.678146,349.138336 222.421265,349.170258 195.164383,349.202209 
	C194.648224,349.147095 194.132065,349.091949 193.235580,348.952454 
z"/>
<path fill="#004829" opacity="1.000000" stroke="none" 
	d="
M278.569275,335.663452 
	C250.945618,335.904968 222.981125,335.930573 194.559128,335.903137 
	C195.541489,335.568726 196.980911,335.044739 198.421341,335.041931 
	C223.878372,334.992310 249.335526,335.000458 274.792633,335.025024 
	C275.938049,335.026123 277.083160,335.300415 278.569275,335.663452 
z"/>
<path fill="#32A97A" opacity="1.000000" stroke="none" 
	d="
M380.821594,219.096878 
	C380.307190,228.447098 379.792755,237.797302 379.061279,247.486877 
	C378.896423,244.161148 378.948608,240.496063 379.006592,235.924789 
	C378.982422,219.702698 378.952423,204.386810 378.922424,189.070908 
	C379.577332,189.220978 380.232239,189.371063 381.015533,189.727219 
	C381.143921,189.933304 381.050598,190.057251 380.715515,190.379852 
	C380.527466,200.167267 380.674530,209.632065 380.821594,219.096878 
z"/>
<path fill="#004829" opacity="1.000000" stroke="none" 
	d="
M195.504196,349.404022 
	C222.421265,349.170258 249.678146,349.138336 277.387573,349.148041 
	C276.565948,349.458984 275.292206,349.960968 274.017548,349.963226 
	C248.774094,350.008209 223.530563,349.998871 198.287048,349.977722 
	C197.472595,349.977051 196.658356,349.735229 195.504196,349.404022 
z"/>
<path fill="#159160" opacity="1.000000" stroke="none" 
	d="
M105.778664,230.946823 
	C105.824188,234.294250 105.869713,237.641678 105.872940,241.437851 
	C105.453934,241.896484 105.077232,241.906357 104.393036,241.450073 
	C104.071251,222.009644 104.056961,203.035355 104.042664,184.061081 
	C104.452194,184.048157 104.861725,184.035233 105.577545,184.049301 
	C105.916466,187.079987 105.949112,190.083664 105.694786,193.891937 
	C105.278481,200.836182 105.001602,206.977280 105.061974,213.115067 
	C105.120461,219.060760 105.525711,225.003036 105.778664,230.946823 
z"/>
<path fill="#004829" opacity="1.000000" stroke="none" 
	d="
M103.940918,183.844788 
	C104.056961,203.035355 104.071251,222.009644 104.110352,241.444366 
	C103.756859,241.314331 103.049614,240.724716 103.047997,240.133163 
	C102.996948,221.498413 103.014351,202.863480 103.024078,184.228561 
	C103.024162,184.063354 103.015144,183.784531 103.089836,183.754181 
	C103.318794,183.661072 103.586517,183.663315 103.940918,183.844788 
z"/>
<path fill="#004829" opacity="1.000000" stroke="none" 
	d="
M378.696228,189.407654 
	C378.952423,204.386810 378.982422,219.702698 378.964722,235.480103 
	C378.651337,235.339951 378.151337,234.737152 378.154297,234.136826 
	C378.227142,219.339203 378.353333,204.541824 378.696228,189.407654 
z"/>
<path fill="#4AA781" opacity="1.000000" stroke="none" 
	d="
M367.085419,236.455963 
	C367.507599,236.021255 367.866394,236.040207 368.492676,236.085907 
	C368.772400,236.830811 368.784637,237.548965 368.590820,238.932068 
	C368.294922,240.770111 368.205078,241.943176 368.115234,243.116241 
	C366.563538,249.950150 365.011841,256.784058 363.133667,263.777161 
	C364.212128,254.927460 365.617096,245.918549 367.085419,236.455963 
z"/>
<path fill="#4CAB86" opacity="1.000000" stroke="none" 
	d="
M93.865486,211.451614 
	C93.400467,211.685760 92.990402,211.461029 92.374756,211.123718 
	C92.446098,206.181213 92.874672,201.352921 92.927391,196.520554 
	C92.949333,194.509262 92.170029,192.489197 91.395447,190.345764 
	C94.135963,187.654053 93.937935,190.215088 93.947556,192.156189 
	C93.978683,198.434845 93.935188,204.713852 93.865486,211.451614 
z"/>
<path fill="#4CAB86" opacity="1.000000" stroke="none" 
	d="
M189.605942,324.080200 
	C191.175201,324.579163 192.317154,325.003540 193.710815,325.602722 
	C185.797562,324.405426 177.632614,323.033325 169.255737,321.361450 
	C175.755432,322.042938 182.467026,323.024261 189.605942,324.080200 
z"/>
<path fill="#2A9368" opacity="1.000000" stroke="none" 
	d="
M368.296570,242.809250 
	C368.205078,241.943176 368.294922,240.770111 368.554504,239.290405 
	C368.642120,240.156601 368.559998,241.329437 368.296570,242.809250 
z"/>
<path fill="#A4E4CB" opacity="1.000000" stroke="none" 
	d="
M117.485901,390.359985 
	C118.127289,390.672211 118.862473,391.247406 119.567368,392.134491 
	C118.884613,391.838531 118.232155,391.230743 117.485901,390.359985 
z"/>
<path fill="#A4E4CB" opacity="1.000000" stroke="none" 
	d="
M119.596245,392.515045 
	C120.034477,392.653076 120.433594,393.123810 120.876816,393.914215 
	C120.466331,393.771851 120.011726,393.309814 119.596245,392.515045 
z"/>
<path fill="#A4E4CB" opacity="1.000000" stroke="none" 
	d="
M126.951721,400.296387 
	C127.162643,400.273254 127.406631,400.546661 127.782906,401.062073 
	C127.605057,401.067017 127.294922,400.829956 126.951721,400.296387 
z"/>
<path fill="#A4E4CB" opacity="1.000000" stroke="none" 
	d="
M125.869064,399.329224 
	C126.079811,399.267700 126.372246,399.499542 126.820808,399.965271 
	C126.634880,400.006927 126.292816,399.814758 125.869064,399.329224 
z"/>
<path fill="#A4E4CB" opacity="1.000000" stroke="none" 
	d="
M124.872849,398.323059 
	C125.079361,398.258209 125.367020,398.485626 125.819130,398.931061 
	C125.640381,398.971161 125.297188,398.793243 124.872849,398.323059 
z"/>
<path fill="#A4E4CB" opacity="1.000000" stroke="none" 
	d="
M123.883820,397.316833 
	C124.089195,397.255249 124.372009,397.486572 124.821014,397.933777 
	C124.645226,397.969666 124.303246,397.789673 123.883820,397.316833 
z"/>
<path fill="#A4E4CB" opacity="1.000000" stroke="none" 
	d="
M122.828369,396.364410 
	C122.999008,396.296326 123.309616,396.490662 123.810974,396.883057 
	C123.657272,396.929718 123.312813,396.778290 122.828369,396.364410 
z"/>
<path fill="#025F39" opacity="1.000000" stroke="none" 
	d="
M169.829788,294.026489 
	C155.614624,288.701569 144.684006,279.312958 136.134583,266.183563 
	C135.292587,263.854370 134.330200,262.268890 133.827499,260.549011 
	C131.528900,252.684830 129.359192,244.782944 127.357590,236.554077 
	C127.693771,223.876617 127.832802,211.539795 127.894287,199.202576 
	C127.897957,198.464233 127.281425,197.722824 126.927216,196.884918 
	C126.900940,196.786987 126.969460,196.596146 126.969460,196.596146 
	C127.317902,193.019821 127.280540,189.354797 128.078934,185.881912 
	C132.450195,166.867676 143.971146,153.002472 160.765076,143.933548 
	C168.284500,139.872971 177.060257,138.138901 185.621994,135.465912 
	C185.985840,135.756943 185.993561,135.931152 186.349792,136.326462 
	C187.840347,136.699371 188.982269,136.982910 190.124435,136.983795 
	C221.183044,137.007965 252.241699,137.018875 283.300201,136.957916 
	C284.874603,136.954834 286.447723,136.290741 288.021423,135.934418 
	C300.780670,136.525635 311.568481,142.232010 321.155060,149.926971 
	C326.974304,154.597992 331.594269,160.763107 336.905975,166.926682 
	C340.369354,177.070236 343.679749,186.544113 346.959229,196.484802 
	C346.641510,210.927002 346.354706,224.902390 346.067871,238.877777 
	C347.669159,246.118866 344.759399,252.688629 341.634033,258.556396 
	C332.581451,275.552124 320.118958,289.183044 300.815979,294.892914 
	C300.364014,295.026611 299.998657,295.453156 299.161285,295.478333 
	C297.378448,295.004486 296.009735,294.540222 294.679016,294.631226 
	C289.386414,294.993103 284.107361,295.912384 278.820282,295.935608 
	C248.994736,296.066528 219.168289,295.980560 189.342255,296.033295 
	C187.231613,296.037018 185.121872,296.560303 182.618347,296.850708 
	C178.093231,295.915100 173.961517,294.970795 169.829788,294.026489 
M336.366913,198.997192 
	C335.968658,198.975601 335.570404,198.954025 335.052856,198.061996 
	C334.576050,194.218979 334.790833,190.120941 333.486298,186.583160 
	C330.224396,177.737122 325.638702,169.761429 318.704956,162.895370 
	C308.652771,152.941269 296.559448,148.555496 283.016235,146.241806 
	C283.012421,145.841476 283.008606,145.441132 282.333038,144.549469 
	C282.025024,144.428986 281.717224,144.203644 281.408936,144.202881 
	C251.705963,144.129959 222.002945,144.073120 192.299927,144.057739 
	C192.201080,144.057693 192.101913,144.673828 192.002975,145.390625 
	C192.002975,145.390625 192.020630,145.778671 191.211395,145.928314 
	C179.769424,148.549133 168.538666,150.991302 158.903427,158.906128 
	C148.120773,167.763519 141.371735,178.394943 138.192642,192.367264 
	C137.862488,206.038666 137.423813,219.709015 137.290268,233.382324 
	C137.262299,236.246323 138.358521,239.121292 138.822830,242.776535 
	C141.116348,248.442337 142.477005,254.774841 145.932724,259.610016 
	C150.551025,266.071869 156.280930,272.008179 162.471725,277.008545 
	C170.043411,283.124237 179.109421,286.603455 189.443939,287.070435 
	C189.443939,287.070435 189.805206,287.176392 189.924789,287.573639 
	C189.924789,287.573639 190.086502,287.955688 189.658173,288.162628 
	C189.684570,288.416199 189.675140,288.682709 189.758987,288.915588 
	C189.784485,288.986328 190.067444,288.982086 190.232498,288.982269 
	C198.991562,288.991272 207.750610,289.001190 216.509674,289.002411 
	C237.602371,289.005371 258.695068,289.006134 279.787781,289.000397 
	C281.282745,289.000000 282.777863,288.941956 284.271240,288.874237 
	C284.290558,288.873352 284.331787,288.380341 284.274780,288.137695 
	C284.250916,288.036102 283.996918,287.988617 284.011902,287.531067 
	C284.011902,287.531067 284.160675,287.139191 284.527588,287.031464 
	C284.527588,287.031464 284.880157,286.883423 285.684326,287.036438 
	C312.916382,283.157227 333.542175,261.516998 336.602936,233.986969 
	C336.602936,233.986969 336.978455,233.966537 337.180450,234.388397 
	C337.320068,234.462296 337.478363,234.616028 337.594299,234.588882 
	C337.724030,234.558472 337.909729,234.364288 337.909943,234.241119 
	C337.928101,222.807922 337.938141,211.374695 337.893860,199.941666 
	C337.892731,199.646149 337.285919,199.352982 336.366913,198.997192 
z"/>
<path fill="#005733" opacity="1.000000" stroke="none" 
	d="
M183.011719,296.842010 
	C185.121872,296.560303 187.231613,296.037018 189.342255,296.033295 
	C219.168289,295.980560 248.994736,296.066528 278.820282,295.935608 
	C284.107361,295.912384 289.386414,294.993103 294.679016,294.631226 
	C296.009735,294.540222 297.378448,295.004486 298.866394,295.534241 
	C293.917114,296.901367 288.831177,297.947906 283.028259,298.663055 
	C280.491608,298.228058 278.671997,298.035736 276.852234,298.034058 
	C250.204361,298.009125 223.556274,298.064514 196.908844,297.951965 
	C192.274994,297.932373 187.644028,297.229370 183.011719,296.842010 
z"/>
<path fill="#3D9E78" opacity="1.000000" stroke="none" 
	d="
M182.618347,296.850708 
	C187.644028,297.229370 192.274994,297.932373 196.908844,297.951965 
	C223.556274,298.064514 250.204361,298.009125 276.852234,298.034058 
	C278.671997,298.035736 280.491608,298.228058 282.610229,298.613922 
	C271.732666,299.263763 260.558258,299.835358 249.379135,299.951569 
	C232.258057,300.129517 215.119431,300.410889 198.016418,299.825500 
	C188.623489,299.503998 178.925705,299.381104 170.032898,294.335846 
	C173.961517,294.970795 178.093231,295.915100 182.618347,296.850708 
z"/>
<path fill="#004829" opacity="1.000000" stroke="none" 
	d="
M287.822693,135.708527 
	C286.447723,136.290741 284.874603,136.954834 283.300201,136.957916 
	C252.241699,137.018875 221.183044,137.007965 190.124435,136.983795 
	C188.982269,136.982910 187.840347,136.699371 186.818481,136.329437 
	C217.658646,136.075211 248.378662,136.059158 279.098419,135.958252 
	C281.164612,135.951462 283.228668,135.303574 285.293732,134.953873 
	C286.070465,135.130127 286.847198,135.306381 287.822693,135.708527 
z"/>
<path fill="#0B7C4F" opacity="1.000000" stroke="none" 
	d="
M285.207397,134.869476 
	C283.228668,135.303574 281.164612,135.951462 279.098419,135.958252 
	C248.378662,136.059158 217.658646,136.075211 186.469986,136.108337 
	C185.993561,135.931152 185.985840,135.756943 185.987595,135.321472 
	C186.473099,134.734695 186.949097,134.409164 187.948486,134.448700 
	C220.628250,134.857834 252.784622,134.901932 284.941010,134.946030 
	C284.941010,134.946030 285.121033,134.785080 285.207397,134.869476 
z"/>
<path fill="#A6DBC6" opacity="1.000000" stroke="none" 
	d="
M284.747864,134.559662 
	C252.784622,134.901932 220.628250,134.857834 188.237671,134.452179 
	C220.187225,134.118179 252.370956,134.145752 284.747864,134.559662 
z"/>
<path fill="#159160" opacity="1.000000" stroke="none" 
	d="
M125.163658,235.959030 
	C125.109024,224.199173 125.017487,212.439194 125.055855,200.679642 
	C125.059769,199.481079 125.843826,198.285034 126.617661,196.841980 
	C126.969460,196.596146 126.900940,196.786987 126.950302,197.355591 
	C126.961128,210.645676 126.922585,223.367157 126.597626,236.062805 
	C125.928703,236.010986 125.546181,235.985016 125.163658,235.959030 
z"/>
<path fill="#3D9E78" opacity="1.000000" stroke="none" 
	d="
M346.492004,238.885101 
	C346.354706,224.902390 346.641510,210.927002 346.958557,196.143341 
	C346.996582,194.880173 347.004425,194.425262 347.012268,193.970367 
	C347.322357,194.846115 347.897461,195.720261 347.902771,196.597855 
	C347.982819,209.896072 348.007111,223.194824 347.963928,236.493179 
	C347.961334,237.294052 347.281097,238.092728 346.492004,238.885101 
z"/>
<path fill="#44A07A" opacity="1.000000" stroke="none" 
	d="
M125.121841,236.368073 
	C125.546181,235.985016 125.928703,236.010986 126.658951,236.265198 
	C127.006668,236.493408 127.143188,236.894608 127.143188,236.894608 
	C129.359192,244.782944 131.528900,252.684830 133.827499,260.549011 
	C134.330200,262.268890 135.292587,263.854370 135.997131,265.881165 
	C130.026108,258.890747 127.564728,250.153198 125.981560,241.063675 
	C125.731163,239.626083 125.382980,238.205536 125.121841,236.368073 
z"/>
<path fill="#44A07A" opacity="1.000000" stroke="none" 
	d="
M347.004761,193.542191 
	C347.004425,194.425262 346.996582,194.880173 346.989441,195.676529 
	C343.679749,186.544113 340.369354,177.070236 337.053680,167.226257 
	C343.385315,174.464294 346.093536,183.447296 347.004761,193.542191 
z"/>
<path fill="#3D9E78" opacity="1.000000" stroke="none" 
	d="
M105.845840,230.484619 
	C105.525711,225.003036 105.120461,219.060760 105.061974,213.115067 
	C105.001602,206.977280 105.278481,200.836182 105.619522,194.337646 
	C105.858490,205.993317 105.885757,218.007858 105.845840,230.484619 
z"/>
<path fill="#BFEEDC" opacity="1.000000" stroke="none" 
	d="
M190.101166,337.231384 
	C221.048737,336.942719 252.056351,336.925903 283.532562,336.893982 
	C282.594238,337.247192 281.187897,337.934174 279.780273,337.936829 
	C250.534210,337.991455 221.288010,337.971283 192.041840,337.941650 
	C191.414810,337.941010 190.788071,337.655701 190.101166,337.231384 
z"/>
<path fill="#C9F0E1" opacity="1.000000" stroke="none" 
	d="
M279.642975,347.775024 
	C251.647156,348.024506 223.325638,348.022949 194.544006,347.984131 
	C195.499252,347.630188 196.914093,347.040131 198.330078,347.037354 
	C224.188187,346.986481 250.046432,346.999573 275.904602,347.032440 
	C277.042358,347.033875 278.179749,347.352875 279.642975,347.775024 
z"/>
<path fill="#80FF80" opacity="1.000000" stroke="none" 
	d="
M198.549011,360.889526 
	C199.368729,360.536377 200.641937,360.038788 201.916107,360.036255 
	C225.206894,359.990082 248.497787,359.999481 271.788666,360.019684 
	C272.605469,360.020386 273.422119,360.253967 274.573395,360.607239 
	C249.606293,360.882111 224.304611,360.928802 198.549011,360.889526 
z"/>
<path fill="#808080" opacity="1.000000" stroke="none" 
	d="
M380.892059,218.622803 
	C380.674530,209.632065 380.527466,200.167267 380.638184,190.386078 
	C380.918121,199.429382 380.940338,208.789047 380.892059,218.622803 
z"/>
<path fill="#BFEEDC" opacity="1.000000" stroke="none" 
	d="
M283.037018,146.842041 
	C296.559448,148.555496 308.652771,152.941269 318.704956,162.895370 
	C325.638702,169.761429 330.224396,177.737122 333.486298,186.583160 
	C334.790833,190.120941 334.576050,194.218979 335.031494,198.735962 
	C335.012238,199.577774 335.014374,199.745621 335.000549,200.387543 
	C334.979889,206.995895 334.865570,213.132690 335.005127,219.263702 
	C335.117157,224.185684 335.536957,229.100662 335.921906,234.010620 
	C336.023621,234.002502 336.226837,233.983215 336.226837,233.983215 
	C333.542175,261.516998 312.916382,283.157227 284.950531,286.732635 
	C283.236298,286.286682 282.255920,286.021057 281.275391,286.020294 
	C251.972458,285.997284 222.669479,285.987427 193.366653,286.038940 
	C191.942398,286.041443 190.519180,286.618378 189.095474,286.927826 
	C179.109421,286.603455 170.043411,283.124237 162.471725,277.008545 
	C156.280930,272.008179 150.551025,266.071869 145.932724,259.610016 
	C142.477005,254.774841 141.116348,248.442337 139.114014,242.101379 
	C139.276398,227.826279 139.150635,214.226318 139.016357,200.626450 
	C138.987808,197.733261 138.928314,194.840393 138.883057,191.947372 
	C141.371735,178.394943 148.120773,167.763519 158.903427,158.906128 
	C168.538666,150.991302 179.769424,148.549133 191.605591,145.953003 
	C191.999771,145.977692 191.970779,146.175781 192.092743,146.261093 
	C192.214706,146.346405 192.623657,146.385086 192.623657,146.385086 
	C192.623657,146.385086 192.973175,146.120697 193.437622,146.041321 
	C222.610641,146.014923 251.319229,146.067886 280.175964,146.298065 
	C280.573792,146.656738 280.832428,146.824310 281.425537,146.994598 
	C282.179688,146.954788 282.608337,146.898407 283.037018,146.842041 
M227.431946,265.591827 
	C235.596527,268.939056 243.407913,268.331757 251.299332,262.859680 
	C262.560547,257.995850 272.192719,243.814362 271.251770,230.907959 
	C270.942230,226.662491 268.701660,225.759247 265.084503,225.769333 
	C246.118622,225.822220 227.152222,225.734894 208.186691,225.830856 
	C202.207840,225.861115 199.508514,229.804352 201.301041,235.451050 
	C202.198166,238.277054 203.237244,241.057648 204.172592,243.871933 
	C207.910339,255.118195 216.294754,261.315704 227.431946,265.591827 
M191.670898,183.337738 
	C180.758774,181.497314 175.251312,184.145508 171.364914,192.951508 
	C167.777557,201.079880 173.410385,213.955765 182.429962,215.698334 
	C190.361740,217.230759 199.617554,212.069107 203.106918,204.389572 
	C206.204834,197.571518 200.410263,185.946671 191.670898,183.337738 
M272.571747,208.702759 
	C277.661865,213.512177 282.791748,217.724991 290.699738,215.149780 
	C299.671173,212.228241 304.462830,204.468170 302.684845,195.003571 
	C301.176178,186.972626 292.922974,181.974075 284.507111,182.876358 
	C274.856903,183.910995 269.666260,189.896912 270.201141,199.902969 
	C270.347443,202.639359 271.530334,205.320328 272.571747,208.702759 
M265.188660,224.833969 
	C265.525421,224.667191 265.862183,224.500397 266.198975,224.333633 
	C265.895233,224.230576 265.591675,224.037949 265.287720,224.037369 
	C252.812256,224.013519 240.336746,224.005341 227.861252,223.998779 
	C221.124634,223.995239 214.388000,223.998169 207.651382,223.998169 
	C207.654175,224.279907 207.656967,224.561661 207.659760,224.843399 
	C226.593903,224.843399 245.528046,224.843399 265.188660,224.833969 
z"/>
<path fill="#004829" opacity="1.000000" stroke="none" 
	d="
M283.847534,287.916504 
	C283.996918,287.988617 284.250916,288.036102 284.274780,288.137695 
	C284.331787,288.380341 284.290558,288.873352 284.271240,288.874237 
	C282.777863,288.941956 281.282745,289.000000 279.787781,289.000397 
	C258.695068,289.006134 237.602371,289.005371 216.509674,289.002411 
	C207.750610,289.001190 198.991562,288.991272 190.232498,288.982269 
	C190.067444,288.982086 189.784485,288.986328 189.758987,288.915588 
	C189.675140,288.682709 189.684570,288.416199 190.333099,288.040771 
	C221.954529,287.918152 252.901031,287.917328 283.847534,287.916504 
z"/>
<path fill="#FEFFFF" opacity="1.000000" stroke="none" 
	d="
M189.269714,286.999146 
	C190.519180,286.618378 191.942398,286.041443 193.366653,286.038940 
	C222.669479,285.987427 251.972458,285.997284 281.275391,286.020294 
	C282.255920,286.021057 283.236298,286.286682 284.548462,286.656128 
	C284.880157,286.883423 284.527588,287.031464 283.867310,286.997253 
	C277.711823,286.978394 272.216614,286.996552 266.721375,287.008728 
	C241.082657,287.065521 215.443924,287.120667 189.805206,287.176392 
	C189.805206,287.176392 189.443939,287.070435 189.269714,286.999146 
z"/>
<path fill="#C9F0E1" opacity="1.000000" stroke="none" 
	d="
M138.537857,192.157318 
	C138.928314,194.840393 138.987808,197.733261 139.016357,200.626450 
	C139.150635,214.226318 139.276398,227.826279 139.170959,241.708710 
	C138.358521,239.121292 137.262299,236.246323 137.290268,233.382324 
	C137.423813,219.709015 137.862488,206.038666 138.537857,192.157318 
z"/>
<path fill="#38AB7D" opacity="1.000000" stroke="none" 
	d="
M189.864990,287.375031 
	C215.443924,287.120667 241.082657,287.065521 266.721375,287.008728 
	C272.216614,286.996552 277.711823,286.978394 283.683868,287.051117 
	C284.160675,287.139191 284.011902,287.531067 283.929718,287.723785 
	C252.901031,287.917328 221.954529,287.918152 190.547272,287.937317 
	C190.086502,287.955688 189.924789,287.573639 189.864990,287.375031 
z"/>
<path fill="#0F8355" opacity="1.000000" stroke="none" 
	d="
M280.027802,146.120834 
	C251.319229,146.067886 222.610641,146.014923 193.184128,146.002884 
	C192.301041,146.087814 192.135910,146.131805 191.970779,146.175781 
	C191.970779,146.175781 191.999771,145.977692 192.010193,145.878174 
	C192.020630,145.778671 192.002975,145.390625 192.471298,145.194046 
	C222.961334,145.011917 252.983047,145.026352 283.004761,145.040802 
	C283.008606,145.441132 283.012421,145.841476 283.026611,146.541931 
	C282.608337,146.898407 282.179688,146.954788 281.338013,146.747406 
	C280.625977,146.362701 280.326874,146.241760 280.027802,146.120834 
z"/>
<path fill="#004829" opacity="1.000000" stroke="none" 
	d="
M282.668884,144.795135 
	C252.983047,145.026352 222.961334,145.011917 192.471252,144.999817 
	C192.101913,144.673828 192.201080,144.057693 192.299927,144.057739 
	C222.002945,144.073120 251.705963,144.129959 281.408936,144.202881 
	C281.717224,144.203644 282.025024,144.428986 282.668884,144.795135 
z"/>
<path fill="#004829" opacity="1.000000" stroke="none" 
	d="
M127.357590,236.554077 
	C127.143188,236.894608 127.006668,236.493408 126.945351,236.291031 
	C126.922585,223.367157 126.961128,210.645676 126.976578,197.453506 
	C127.281425,197.722824 127.897957,198.464233 127.894287,199.202576 
	C127.832802,211.539795 127.693771,223.876617 127.357590,236.554077 
z"/>
<path fill="#004829" opacity="1.000000" stroke="none" 
	d="
M336.961609,199.058716 
	C337.285919,199.352982 337.892731,199.646149 337.893860,199.941666 
	C337.938141,211.374695 337.928101,222.807922 337.909943,234.241119 
	C337.909729,234.364288 337.724030,234.558472 337.594299,234.588882 
	C337.478363,234.616028 337.320068,234.462296 337.076721,233.712158 
	C336.969238,221.710175 336.965424,210.384445 336.961609,199.058716 
z"/>
<path fill="#159160" opacity="1.000000" stroke="none" 
	d="
M336.664246,199.027954 
	C336.965424,210.384445 336.969238,221.710175 336.975739,233.501221 
	C336.978455,233.966537 336.602936,233.986969 336.414886,233.985092 
	C336.226837,233.983215 336.023621,234.002502 335.984192,233.544342 
	C335.972870,223.206055 336.035187,213.325760 335.984070,203.446045 
	C335.977966,202.266891 335.354034,201.090927 335.016479,199.913483 
	C335.014374,199.745621 335.012238,199.577774 335.091125,199.171173 
	C335.570404,198.954025 335.968658,198.975601 336.664246,199.027954 
z"/>
<path fill="#025F39" opacity="1.000000" stroke="none" 
	d="
M227.038239,264.960266 
	C216.294754,261.315704 207.910339,255.118195 204.172592,243.871933 
	C203.237244,241.057648 202.198166,238.277054 201.301041,235.451050 
	C199.508514,229.804352 202.207840,225.861115 208.186691,225.830856 
	C227.152222,225.734894 246.118622,225.822220 265.084503,225.769333 
	C268.701660,225.759247 270.942230,226.662491 271.251770,230.907959 
	C272.192719,243.814362 262.560547,257.995850 250.711411,263.195068 
	C242.558701,266.110718 234.861588,266.554657 227.038239,264.960266 
M251.022583,251.009048 
	C251.022583,251.009048 251.011200,251.174286 251.561829,250.991180 
	C251.744385,250.656815 251.926926,250.322464 252.019394,250.027206 
	C252.019394,250.027206 252.059998,250.116623 252.664886,249.911545 
	C252.467224,248.874908 252.269577,247.838287 251.919632,246.368668 
	C251.723236,246.102829 251.459854,245.964783 250.797546,245.405533 
	C250.201004,245.192123 249.604477,244.978729 249.078354,244.916870 
	C249.078354,244.916870 249.227203,244.840897 248.864197,244.302231 
	C248.234985,244.160553 247.605774,244.018875 247.014465,243.982391 
	C247.014465,243.982391 247.119186,243.943237 246.828949,243.366486 
	C246.215836,243.209625 245.602722,243.052780 245.010834,242.977463 
	C245.010834,242.977463 245.091980,242.954788 244.699921,242.315857 
	C242.816101,241.914764 240.932266,241.513687 238.278656,240.912659 
	C236.853729,241.202118 235.352676,241.935455 234.016708,241.706299 
	C227.251404,240.545776 223.304062,244.813431 218.805038,248.557999 
	C228.096970,257.487610 239.648376,258.622833 250.577515,251.921738 
	C250.780914,251.621719 250.984299,251.321701 251.022583,251.009048 
z"/>
<path fill="#03613B" opacity="1.000000" stroke="none" 
	d="
M192.049591,183.513214 
	C200.410263,185.946671 206.204834,197.571518 203.106918,204.389572 
	C199.617554,212.069107 190.361740,217.230759 182.429962,215.698334 
	C173.410385,213.955765 167.777557,201.079880 171.364914,192.951508 
	C175.251312,184.145508 180.758774,181.497314 192.049591,183.513214 
z"/>
<path fill="#03603A" opacity="1.000000" stroke="none" 
	d="
M272.404663,208.364746 
	C271.530334,205.320328 270.347443,202.639359 270.201141,199.902969 
	C269.666260,189.896912 274.856903,183.910995 284.507111,182.876358 
	C292.922974,181.974075 301.176178,186.972626 302.684845,195.003571 
	C304.462830,204.468170 299.671173,212.228241 290.699738,215.149780 
	C282.791748,217.724991 277.661865,213.512177 272.404663,208.364746 
z"/>
<path fill="#ECFBF5" opacity="1.000000" stroke="none" 
	d="
M264.825439,224.838684 
	C245.528046,224.843399 226.593903,224.843399 207.659760,224.843399 
	C207.656967,224.561661 207.654175,224.279907 207.651382,223.998169 
	C214.388000,223.998169 221.124634,223.995239 227.861252,223.998779 
	C240.336746,224.005341 252.812256,224.013519 265.287720,224.037369 
	C265.591675,224.037949 265.895233,224.230576 266.198975,224.333618 
	C265.862183,224.500397 265.525421,224.667191 264.825439,224.838684 
z"/>
<path fill="#E0F8EE" opacity="1.000000" stroke="none" 
	d="
M227.235092,265.276062 
	C234.861588,266.554657 242.558701,266.110718 250.482788,263.515747 
	C243.407913,268.331757 235.596527,268.939056 227.235092,265.276062 
z"/>
<path fill="#ECFBF5" opacity="1.000000" stroke="none" 
	d="
M335.000549,200.387543 
	C335.354034,201.090927 335.977966,202.266891 335.984070,203.446045 
	C336.035187,213.325760 335.972870,223.206055 335.882446,233.552460 
	C335.536957,229.100662 335.117157,224.185684 335.005127,219.263702 
	C334.865570,213.132690 334.979889,206.995895 335.000549,200.387543 
z"/>
<path fill="#E0F8EE" opacity="1.000000" stroke="none" 
	d="
M280.175964,146.298065 
	C280.326874,146.241760 280.625977,146.362701 281.012573,146.730835 
	C280.832428,146.824310 280.573792,146.656738 280.175964,146.298065 
z"/>
<path fill="#E0F8EE" opacity="1.000000" stroke="none" 
	d="
M192.092743,146.261093 
	C192.135910,146.131805 192.301041,146.087814 192.719681,146.082245 
	C192.973175,146.120697 192.623657,146.385086 192.623657,146.385086 
	C192.623657,146.385086 192.214706,146.346405 192.092743,146.261093 
z"/>
<path fill="#8ADCBC" opacity="1.000000" stroke="none" 
	d="
M250.023392,252.013474 
	C239.648376,258.622833 228.096970,257.487610 218.805038,248.557999 
	C223.304062,244.813431 227.251404,240.545776 234.016708,241.706299 
	C235.352676,241.935455 236.853729,241.202118 238.803680,241.346375 
	C241.249802,242.171646 243.170883,242.563217 245.091980,242.954788 
	C245.091980,242.954788 245.010834,242.977463 245.215393,243.157166 
	C245.986359,243.538986 246.552780,243.741119 247.119186,243.943237 
	C247.119186,243.943237 247.014465,243.982391 247.225922,244.148880 
	C248.033981,244.490540 248.630585,244.665710 249.227203,244.840897 
	C249.227203,244.840897 249.078354,244.916870 249.251221,245.079987 
	C249.992569,245.480240 250.561035,245.717377 251.129501,245.954514 
	C251.459854,245.964783 251.723236,246.102829 251.970123,246.998657 
	C252.033722,248.457977 252.046860,249.287308 252.059998,250.116623 
	C252.059998,250.116623 252.019394,250.027206 251.857819,250.182922 
	C251.467896,250.617203 251.239548,250.895752 251.011200,251.174286 
	C251.011200,251.174286 251.022583,251.009048 250.886230,251.152374 
	C250.507736,251.534973 250.265564,251.774231 250.023392,252.013474 
z"/>
<path fill="#A4E4CB" opacity="1.000000" stroke="none" 
	d="
M244.895950,242.635315 
	C243.170883,242.563217 241.249802,242.171646 239.188568,241.446350 
	C240.932266,241.513687 242.816101,241.914764 244.895950,242.635315 
z"/>
<path fill="#A4E4CB" opacity="1.000000" stroke="none" 
	d="
M252.362442,250.014084 
	C252.046860,249.287308 252.033722,248.457977 252.046265,247.215149 
	C252.269577,247.838287 252.467224,248.874908 252.362442,250.014084 
z"/>
<path fill="#A4E4CB" opacity="1.000000" stroke="none" 
	d="
M250.963531,245.680023 
	C250.561035,245.717377 249.992569,245.480240 249.216019,245.004211 
	C249.604477,244.978729 250.201004,245.192123 250.963531,245.680023 
z"/>
<path fill="#A4E4CB" opacity="1.000000" stroke="none" 
	d="
M249.045700,244.571564 
	C248.630585,244.665710 248.033981,244.490540 247.206970,244.096283 
	C247.605774,244.018875 248.234985,244.160553 249.045700,244.571564 
z"/>
<path fill="#A4E4CB" opacity="1.000000" stroke="none" 
	d="
M246.974060,243.654861 
	C246.552780,243.741119 245.986359,243.538986 245.204788,243.116394 
	C245.602722,243.052780 246.215836,243.209625 246.974060,243.654861 
z"/>
<path fill="#A4E4CB" opacity="1.000000" stroke="none" 
	d="
M251.286514,251.082733 
	C251.239548,250.895752 251.467896,250.617203 251.902847,250.163391 
	C251.926926,250.322464 251.744385,250.656815 251.286514,251.082733 
z"/>
<path fill="#A4E4CB" opacity="1.000000" stroke="none" 
	d="
M250.300446,251.967606 
	C250.265564,251.774231 250.507736,251.534973 250.968796,251.158691 
	C250.984299,251.321701 250.780914,251.621719 250.300446,251.967606 
z"/>
</svg>